<svg height="512pt" viewBox="-64 0 512 512" width="512pt" xmlns="http://www.w3.org/2000/svg"><path d="m383 0v512h-383v-400.761719l111.5-111.238281zm0 0" fill="#dee2f7"/><path d="m191.511719 0h191.488281v512h-191.488281zm0 0" fill="#c2c8f5"/><path d="m0 358.210938h383v153.789062h-383zm0 0" fill="#ff623f"/><path d="m111.5 0v111.238281h-111.5zm0 0" fill="#959fef"/><path d="m191.511719 358.210938h191.488281v153.789062h-191.488281zm0 0" fill="#e50021"/><g fill="#fff"><path d="m146.070312 410.199219c-1.53125-3.789063-3.640624-7.160157-6.332031-10.097657-2.679687-2.941406-5.898437-5.320312-9.648437-7.160156-3.75-1.832031-7.839844-2.742187-12.269532-2.742187h-39.101562v90.742187h24.921875v-27.863281h14.820313c4.429687 0 8.5-.878906 12.210937-2.617187 3.707031-1.75 6.859375-4.089844 9.457031-7.03125 2.589844-2.941407 4.621094-6.308594 6.070313-10.101563 1.441406-3.789063 2.171875-7.6875 2.171875-11.6875 0-3.839844-.769532-7.652344-2.300782-11.441406zm-24.992187 19.039062c-1.316406 1.410157-2.738281 2.113281-4.277344 2.113281h-13.160156v-19.429687h12.519531c1.539063 0 3.070313.6875 4.601563 2.046875 1.539062 1.359375 2.296875 3.921875 2.296875 7.671875 0 3.660156-.660156 6.1875-1.980469 7.597656zm0 0"/><path d="m236.039062 417.871094c-1.960937-5.5-4.859374-10.292969-8.6875-14.382813-3.832031-4.089843-8.613281-7.328125-14.3125-9.707031-5.710937-2.390625-12.320312-3.582031-19.808593-3.582031h-34.890625v90.742187h34.890625c6.898437 0 13.160156-1.089844 18.78125-3.261718 5.628906-2.167969 10.4375-5.238282 14.4375-9.199219 4.011719-3.96875 7.101562-8.742188 9.269531-14.320313 2.171875-5.582031 3.261719-11.820312 3.261719-18.71875 0-6.222656-.980469-12.082031-2.941407-17.570312zm-23.710937 27.027344c-.886719 2.890624-2.207031 5.410156-3.957031 7.542968-1.75 2.128906-3.902344 3.789063-6.449219 4.980469-2.5625 1.199219-5.460937 1.789063-8.691406 1.789063h-9.96875v-47.289063h9.96875c3.148437 0 6 .578125 8.558593 1.726563 2.550782 1.152343 4.710938 2.75 6.449219 4.792968 1.75 2.046875 3.089844 4.519532 4.03125 7.410156.941407 2.898438 1.402344 6.097657 1.402344 9.589844 0 3.410156-.441406 6.558594-1.34375 9.457032zm0 0"/><path d="m312.078125 411.921875v-21.722656h-62.238281v90.742187h24.921875v-33.742187h30.417969v-20.199219h-30.417969v-15.078125zm0 0"/></g><path d="m279.96875 163.5-88.457031 123.398438-.011719.011718-88.46875-123.410156zm0 0" fill="#ff623f"/><path d="m279.96875 163.5-88.457031 123.398438v-123.398438zm0 0" fill="#e50021"/><path d="m238.980469 435.441406c0 6.898438-1.089844 13.136719-3.261719 18.71875-2.167969 5.578125-5.257812 10.351563-9.269531 14.320313-4 3.960937-8.808594 7.03125-14.4375 9.199219-5.621094 2.171874-11.882813 3.261718-18.78125 3.261718h-1.71875v-21.730468h1.71875c3.230469 0 6.128906-.589844 8.691406-1.789063 2.546875-1.191406 4.699219-2.851563 6.449219-4.980469 1.75-2.132812 3.070312-4.652344 3.957031-7.542968.902344-2.898438 1.34375-6.046876 1.34375-9.457032 0-3.492187-.460937-6.691406-1.402344-9.589844-.941406-2.890624-2.28125-5.363281-4.03125-7.410156-1.738281-2.042968-3.898437-3.640625-6.449219-4.792968-2.558593-1.148438-5.410156-1.726563-8.558593-1.726563h-1.71875v-21.722656h1.71875c7.488281 0 14.097656 1.191406 19.808593 3.582031 5.699219 2.378906 10.480469 5.617188 14.3125 9.707031 3.828126 4.089844 6.726563 8.882813 8.6875 14.382813 1.960938 5.488281 2.941407 11.347656 2.941407 17.570312zm0 0" fill="#c2c8f5"/><path d="m274.761719 411.921875v15.078125h30.417969v20.199219h-30.417969v33.742187h-24.921875v-90.742187h62.238281v21.722656zm0 0" fill="#c2c8f5"/></svg>